<?xml version="1.0" encoding="UTF-8"?>
<svg version="1.1" xmlns="http://www.w3.org/2000/svg" width="300" height="300">
<path d="M0 0 C37.62 0 75.24 0 114 0 C108.88518751 12.78703123 100.8800837 24.6169464 93.75 36.375 C91.19837562 40.60381569 88.84842293 44.92720554 86.50390625 49.2734375 C84.57608655 52.76854958 82.5145469 56.17332579 80.4453125 59.5859375 C77.04778997 65.26071838 73.89693857 71.05365241 71 77 C70.34 77 69.68 77 69 77 C68.87625 77.556875 68.7525 78.11375 68.625 78.6875 C67.94023145 81.22114364 67.00866237 83.57921032 66 86 C65.34 86 64.68 86 64 86 C63.77054688 86.81726563 63.54109375 87.63453125 63.3046875 88.4765625 C61.70970373 92.78397376 59.51102277 96.46553996 57.125 100.375 C53.82679818 105.81654366 50.77937783 111.27318894 48 117 C44.13673711 116.19928098 41.92524993 114.6814791 39 112 C39 111.34 39 110.68 39 110 C38.01 109.67 37.02 109.34 36 109 C36 108.34 36 107.68 36 107 C35.01 106.67 34.02 106.34 33 106 C32.24609375 103.9453125 32.24609375 103.9453125 32 101 C33.25397717 98.44483712 34.51231321 96.23510738 36.0625 93.875 C36.90542514 92.53627494 37.7465629 91.19642284 38.5859375 89.85546875 C39.00069336 89.19981934 39.41544922 88.54416992 39.84277344 87.86865234 C41.39514183 85.36193765 42.79985549 82.78840588 44.1875 80.1875 C46.49573126 75.88261691 48.96403232 71.70503015 51.5 67.53125 C53.06707679 64.88680791 54.5409074 62.20540087 56 59.5 C58.37246912 55.10104684 60.89335222 50.82117627 63.48828125 46.55078125 C65.63032825 42.93642288 67.62033205 39.24527603 69.60546875 35.54296875 C70.57165309 33.78110319 71.59307465 32.04884255 72.65625 30.34375 C74.21483041 27.62529579 74.41687637 26.08488517 74 23 C71.14386579 20.14386579 69.16537913 20.72298306 65.16357422 20.68115234 C64.10975052 20.66608391 64.10975052 20.66608391 63.03463745 20.65071106 C60.70799594 20.61977269 58.38147004 20.60281473 56.0546875 20.5859375 C54.44327797 20.56723438 52.83187832 20.54766161 51.2204895 20.5272522 C46.9757875 20.47583438 42.7310537 20.43626052 38.48620605 20.39910889 C34.156088 20.35912953 29.82610327 20.3080096 25.49609375 20.2578125 C16.99747998 20.16093897 8.49881163 20.07760031 0 20 C0 13.4 0 6.8 0 0 Z " fill="#000000" transform="translate(27,136)"/>
<path d="M0 0 C3.61556644 1.20518881 3.85372123 1.9665648 5.6875 5.1875 C6.19925781 6.07824219 6.71101563 6.96898437 7.23828125 7.88671875 C7.81964844 8.91410156 8.40101563 9.94148437 9 11 C9.72113529 12.23656532 10.44386276 13.47220316 11.16796875 14.70703125 C11.90414544 15.97106333 12.63982662 17.23538413 13.375 18.5 C13.73295654 19.11125732 14.09091309 19.72251465 14.4597168 20.35229492 C17 24.77069046 17 24.77069046 17 27 C17.66 27 18.32 27 19 27 C19.98484108 28.74681293 20.96266187 30.4975851 21.9375 32.25 C22.48277344 33.22453125 23.02804688 34.1990625 23.58984375 35.203125 C24.76610835 37.53610409 25.52101691 39.45350762 26 42 C26.66 42 27.32 42 28 42 C28.51264404 42.96486328 28.51264404 42.96486328 29.03564453 43.94921875 C33.69884411 52.62292464 38.79771512 61.0037341 43.9609375 69.38671875 C44.93546875 70.98966797 44.93546875 70.98966797 45.9296875 72.625 C46.51991699 73.58664063 47.11014648 74.54828125 47.71826172 75.5390625 C49 78 49 78 49 81 C49.66 81 50.32 81 51 81 C52.7265625 83.51953125 52.7265625 83.51953125 54.625 86.8125 C55.25664062 87.89144531 55.88828125 88.97039062 56.5390625 90.08203125 C58 93 58 93 58 96 C58.66 96 59.32 96 60 96 C64.02364975 102.34029657 64.02364975 102.34029657 63.92578125 105.0703125 C62.5942606 107.84571841 60.89673875 108.37972607 58.125 109.625 C55.2089002 110.95977454 52.67988442 112.21341039 50 114 C47.625 114.125 47.625 114.125 45 113 C43.00327256 110.51464742 41.52478744 107.79214324 40 105 C39.60296875 104.33484375 39.2059375 103.6696875 38.796875 102.984375 C36 98.29665493 36 98.29665493 36 96 C35.34 96 34.68 96 34 96 C33.63648438 95.32195312 33.27296875 94.64390625 32.8984375 93.9453125 C29.86763739 88.33444666 26.72618836 82.82242735 23.41796875 77.37109375 C21.72537838 74.54078423 20.14436622 71.65877507 18.5625 68.765625 C17.23836828 66.42191185 15.8803341 64.10761129 14.5 61.796875 C13.82372559 60.66197632 13.82372559 60.66197632 13.13378906 59.50415039 C12.22334553 57.97994455 11.30873933 56.45821616 10.38964844 54.93920898 C9.9671582 54.23094971 9.54466797 53.52269043 9.109375 52.79296875 C8.72749023 52.1589917 8.34560547 51.52501465 7.95214844 50.87182617 C6.96396268 48.92915432 6.44431178 47.12756985 6 45 C2.71303767 44.20046862 1.28976808 43.90341064 -2 45 C-3.70855022 48.00007271 -3.70855022 48.00007271 -5 51 C-5.66 51 -6.32 51 -7 51 C-7.20625 51.78375 -7.4125 52.5675 -7.625 53.375 C-10.25062463 60.29710129 -14.5796598 66.35344344 -18.5625 72.5625 C-21.01663367 76.39841762 -23.30500839 80.26891646 -25.4765625 84.26953125 C-28.07010518 88.91795774 -30.80502366 93.48435827 -33.52270508 98.06103516 C-34.1514856 99.12330322 -34.1514856 99.12330322 -34.79296875 100.20703125 C-35.1696167 100.8410083 -35.54626465 101.47498535 -35.93432617 102.12817383 C-37.03029885 104.05321907 -38.02707236 106.01033405 -39 108 C-39.66 108 -40.32 108 -41 108 C-41.144375 108.61875 -41.28875 109.2375 -41.4375 109.875 C-42 112 -42 112 -43 114 C-47.78642607 113.4253379 -51.53788787 112.01754357 -55.875 109.9375 C-57.02742188 109.38964844 -58.17984375 108.84179688 -59.3671875 108.27734375 C-60.23601562 107.85582031 -61.10484375 107.43429687 -62 107 C-60.6926925 103.56068166 -59.18963666 100.38699095 -57.375 97.1875 C-56.92898437 96.39730469 -56.48296875 95.60710937 -56.0234375 94.79296875 C-55.68570313 94.20128906 -55.34796875 93.60960937 -55 93 C-54.34 93 -53.68 93 -53 93 C-52.87625 92.2575 -52.7525 91.515 -52.625 90.75 C-52.04513299 88.19858515 -51.26291261 86.2732427 -50 84 C-49.34 84 -48.68 84 -48 84 C-47.76796875 83.18015625 -47.5359375 82.3603125 -47.296875 81.515625 C-45.72795732 77.26253491 -43.59086127 73.61702161 -41.25 69.75 C-40.80116455 68.99783203 -40.3523291 68.24566406 -39.88989258 67.47070312 C-38.59913126 65.31020734 -37.30107383 63.15429717 -36 61 C-34.89575412 59.16671437 -33.79157051 57.33339124 -32.6875 55.5 C-31.98947266 54.34177734 -31.98947266 54.34177734 -31.27734375 53.16015625 C-30.06212895 51.10506823 -28.89792664 49.03077798 -27.75 46.9375 C-22.64581492 37.65416015 -17.16458465 28.56698729 -11.6875 19.5 C-9.84687378 16.45130079 -8.08645643 13.37302019 -6.375 10.25 C-4.4225578 6.69263768 -2.30932972 3.33569848 0 0 Z " fill="#000000" transform="translate(149,156)"/>
<path d="M0 0 C37.29 0 74.58 0 113 0 C113 6.6 113 13.2 113 20 C110.82937988 20.01981934 108.65875977 20.03963867 106.42236328 20.06005859 C99.26171023 20.12687628 92.10120426 20.20451677 84.94072151 20.28752708 C80.59804624 20.33753668 76.25539586 20.38386609 71.91259766 20.421875 C67.723891 20.45866919 63.5353902 20.5050127 59.34685898 20.55806351 C57.7464648 20.57663878 56.14602643 20.59173509 54.54556656 20.60334396 C52.30897046 20.62015324 50.07284909 20.64917413 47.83642578 20.68115234 C45.92447922 20.70113785 45.92447922 20.70113785 43.97390747 20.7215271 C40.88266021 20.69193792 40.88266021 20.69193792 39 23 C38.24896127 27.72081488 40.15178622 30.36909241 42.6875 34.25 C43.42451701 35.40148722 44.1601914 36.55383488 44.89453125 37.70703125 C45.58933594 38.79371094 46.28414062 39.88039062 47 41 C49.90971574 45.87359335 52.44906767 50.50123992 54 56 C54.66 56 55.32 56 56 56 C59 61.625 59 61.625 59 65 C59.66 65 60.32 65 61 65 C62.515625 67.23828125 62.515625 67.23828125 64.25 70.3125 C64.87261719 71.40949219 65.49523437 72.50648438 66.13671875 73.63671875 C68.28918802 77.52199346 70.41441644 81.42091982 72.51953125 85.33203125 C74.02350666 88.04236161 75.62189232 90.67520209 77.25 93.3125 C79.36588374 96.78542959 80.95697739 100.03651409 82 104 C80.625 105.5 80.625 105.5 79 107 C78.34 107 77.68 107 77 107 C76.505 108.485 76.505 108.485 76 110 C73.93359375 111.82421875 73.93359375 111.82421875 71.4375 113.6875 C70.61121094 114.31011719 69.78492188 114.93273437 68.93359375 115.57421875 C68.29550781 116.04472656 67.65742188 116.51523438 67 117 C64.48232428 115.74116214 64.11786456 114.66011888 62.8125 112.1875 C60.7784414 108.41339126 58.67241461 104.69641788 56.5 101 C47.64732577 85.84051864 47.64732577 85.84051864 46 80 C45.34 80 44.68 80 44 80 C43.69707031 79.38253906 43.39414063 78.76507813 43.08203125 78.12890625 C40.5093282 72.92808807 37.83073159 67.83141443 34.91796875 62.8125 C34 61 34 61 34 59 C33.34 59 32.68 59 32 59 C31.69707031 58.38253906 31.39414063 57.76507813 31.08203125 57.12890625 C28.5093282 51.92808807 25.83073159 46.83141443 22.91796875 41.8125 C22 40 22 40 22 38 C21.34 38 20.68 38 20 38 C19.69707031 37.38253906 19.39414063 36.76507813 19.08203125 36.12890625 C16.5093282 30.92808807 13.83073159 25.83141443 10.91796875 20.8125 C10 19 10 19 10 17 C9.34 17 8.68 17 8 17 C7.67386719 16.33613281 7.34773437 15.67226562 7.01171875 14.98828125 C4.25338463 9.4110217 4.25338463 9.4110217 1.1875 4 C0 2 0 2 0 0 Z " fill="#000000" transform="translate(160,136)"/>
<path d="M0 0 C18.00762206 -1.88315002 18.00762206 -1.88315002 23.41845703 1.52197266 C27.70345948 5.27312457 31.25851995 9.60317433 34.61572266 14.19067383 C36.16118386 16.29311428 36.16118386 16.29311428 39 19 C39.33 12.73 39.66 6.46 40 0 C45.61 0 51.22 0 57 0 C57.33 11.22 57.66 22.44 58 34 C59.98 31.03 61.96 28.06 64 25 C66.30418698 21.66315506 68.62539702 18.33881048 70.94921875 15.015625 C73.01113469 12.06996045 73.01113469 12.06996045 74.64453125 9.109375 C75.09183594 8.41328125 75.53914063 7.7171875 76 7 C76.66 7 77.32 7 78 7 C78.185625 6.1028125 78.185625 6.1028125 78.375 5.1875 C79 3 79 3 81 0 C86.82413138 -1.62680927 94.14539971 -1.34791654 100 0 C104.09183902 2.89466341 105.77334693 6.58627881 108 11 C109.25312312 13.0725122 110.55002141 15.11298775 111.85327148 17.15429688 C113.12812104 19.15673211 114.36860167 21.17708653 115.60546875 23.203125 C117.23260216 25.84391581 118.96388721 28.36021702 120.80078125 30.859375 C123 34 123 34 123 36 C119.89632503 36.14515677 116.79351973 36.23400853 113.6875 36.3125 C112.80642578 36.35439453 111.92535156 36.39628906 111.01757812 36.43945312 C108.58392668 36.48572026 106.38550522 36.49318838 104 36 C103.54238281 35.18144531 103.08476562 34.36289063 102.61328125 33.51953125 C101.81470703 32.27236328 101.81470703 32.27236328 101 31 C97.17521534 30.18814483 93.39519615 30.3038332 89.5 30.375 C87.91251953 30.34599609 87.91251953 30.34599609 86.29296875 30.31640625 C85.27847656 30.32285156 84.26398438 30.32929687 83.21875 30.3359375 C82.28998047 30.34157715 81.36121094 30.3472168 80.40429688 30.35302734 C79.61087891 30.56652832 78.81746094 30.7800293 78 31 C77.57952393 31.8235498 77.15904785 32.64709961 76.72583008 33.49560547 C76.15630615 34.32205566 75.58678223 35.14850586 75 36 C71.87588045 36.54129338 69.29991567 36.74870774 66.16796875 36.734375 C65.29860184 36.74390198 64.42923492 36.75342896 63.53352356 36.76324463 C61.69353177 36.77541136 59.85341489 36.7745667 58.01342773 36.76171875 C55.20657714 36.75007911 52.40579735 36.80216122 49.59960938 36.859375 C47.80990005 36.86326195 46.0201778 36.86338379 44.23046875 36.859375 C43.39589645 36.87981873 42.56132416 36.90026245 41.70146179 36.92132568 C38.22411355 36.85267647 35.91859401 36.77212402 33.19497681 34.48278809 C31.68324171 32.71609819 30.35079801 30.89052263 29 29 C28.06120278 28.04293741 27.1041104 27.10327936 26.125 26.1875 C24 24 24 24 24 22 C23.01 21.67 22.02 21.34 21 21 C19.68 19.35 18.36 17.7 17 16 C16.67 22.6 16.34 29.2 16 36 C10.72 36 5.44 36 0 36 C0 24.12 0 12.24 0 0 Z M89 12 C88.16094435 13.12073862 87.32892169 14.24674547 86.5 15.375 C86.0359375 16.00148438 85.571875 16.62796875 85.09375 17.2734375 C83.82161899 18.94094613 83.82161899 18.94094613 84 21 C87.96 21 91.92 21 96 21 C96 20.34 96 19.68 96 19 C95.34 19 94.68 19 94 19 C93.5978125 17.5459375 93.5978125 17.5459375 93.1875 16.0625 C92.795625 15.051875 92.40375 14.04125 92 13 C91.01 12.67 90.02 12.34 89 12 Z " fill="#000000" transform="translate(144,92)"/>
<path d="M0 0 C6.66565328 3.81323408 11.46931835 8.97379294 14.9140625 15.86328125 C16.84700045 23.77075469 16.93055934 32.8692019 12.62109375 40.00390625 C8.32312646 45.97023617 3.28582037 51.10569232 -4.0859375 52.86328125 C-12.60333459 53.713996 -19.64429116 53.27314575 -27.0859375 48.86328125 C-27.0859375 48.20328125 -27.0859375 47.54328125 -27.0859375 46.86328125 C-28.0759375 46.86328125 -29.0659375 46.86328125 -30.0859375 46.86328125 C-35.55933262 42.53017678 -37.83154 35.49228956 -39.0859375 28.86328125 C-39.26305429 22.33947941 -37.62061039 16.81425238 -35.0859375 10.86328125 C-34.4259375 10.86328125 -33.7659375 10.86328125 -33.0859375 10.86328125 C-33.0859375 9.87328125 -33.0859375 8.88328125 -33.0859375 7.86328125 C-31.80078125 6.36328125 -31.80078125 6.36328125 -30.0234375 4.86328125 C-29.45496094 4.36828125 -28.88648438 3.87328125 -28.30078125 3.36328125 C-20.10531336 -2.18708854 -9.31925656 -3.43278944 0 0 Z " fill="#000000" transform="translate(162.0859375,31.13671875)"/>
<path d="M0 0 C0.88558594 -0.01160156 1.77117187 -0.02320312 2.68359375 -0.03515625 C9.79727559 -0.00381844 16.7448321 0.75423054 22.0625 5.8125 C23.5 8.375 23.5 8.375 23.5 12.375 C18.22 12.375 12.94 12.375 7.5 12.375 C7.5 11.715 7.5 11.055 7.5 10.375 C4.35069107 9.32523036 2.11185544 9.27368405 -1.1875 9.3125 C-2.18136719 9.32152344 -3.17523438 9.33054687 -4.19921875 9.33984375 C-4.95847656 9.35144531 -5.71773437 9.36304687 -6.5 9.375 C-6.5 10.035 -6.5 10.695 -6.5 11.375 C-5.74976562 11.49617188 -4.99953125 11.61734375 -4.2265625 11.7421875 C-0.98204425 12.27340585 2.25931776 12.82087391 5.5 13.375 C6.428125 13.53097656 7.35625 13.68695313 8.3125 13.84765625 C14.03220169 14.88522409 18.99800665 16.03980621 23.375 20.125 C25.03780754 23.45061509 25.01447272 25.70938187 24.5 29.375 C21.36646591 34.12932759 17.33021367 35.60451168 11.99609375 36.87109375 C0.51503851 38.52590506 -13.12441301 39.29205799 -23.125 32.625 C-25.04422921 29.48444311 -24.77710406 26.97735273 -24.5 23.375 C-20.54 23.045 -16.58 22.715 -12.5 22.375 C-13.923125 21.7975 -15.34625 21.22 -16.8125 20.625 C-22.96281153 17.85929387 -22.96281153 17.85929387 -24.5 14.375 C-25 11.4375 -25 11.4375 -24.5 8.375 C-18.72982853 0.37121377 -9.1196592 -0.11947152 0 0 Z M-8.5 23.375 C-7.96169739 26.44953766 -7.96169739 26.44953766 -5.875 28.625 C-2.59428832 29.66101422 0.07931632 29.68041819 3.5 29.375 C5.90083438 28.01614884 5.90083438 28.01614884 7.5 26.375 C1.9477112 23.5397887 -2.30112515 22.99547705 -8.5 23.375 Z " fill="#000000" transform="translate(63.5,90.625)"/>
<path d="M0 0 C14.19 0 28.38 0 43 0 C43 2.97 43 5.94 43 9 C34.42 9 25.84 9 17 9 C17 10.32 17 11.64 17 13 C24.92 13 32.84 13 41 13 C41 15.97 41 18.94 41 22 C33.08 22 25.16 22 17 22 C17 23.65 17 25.3 17 27 C25.91 27 34.82 27 44 27 C44 29.97 44 32.94 44 36 C29.48 36 14.96 36 0 36 C0 24.12 0 12.24 0 0 Z " fill="#000000" transform="translate(94,92)"/>
</svg>
